HIERARCHY
ROOT Hips
{
    OFFSET   0.000000   0.000000   0.000000
    CHANNELS 6 Xposition Yposition Zposition Zrotation Xrotation Yrotation
    JOINT Chest
    {
        OFFSET   0.000000   8.007230   0.000000
        CHANNELS 3 Zrotation Xrotation Yrotation
        JOINT Chest2
        {
            OFFSET   0.000000  22.077100   0.000000
            CHANNELS 3 Zrotation Xrotation Yrotation
            JOINT Neck
            {
                OFFSET   0.000000  23.255100   0.000000
                CHANNELS 3 Zrotation Xrotation Yrotation
                JOINT Head
                {
                    OFFSET   0.000000  14.370100   1.956600
                    CHANNELS 3 Zrotation Xrotation Yrotation
                    End Site
                    {
                        OFFSET   0.000000  19.566000   0.000000
                    }
                }
            }
            JOINT LeftCollar
            {
                OFFSET   3.911900  19.017000  -0.467063
                CHANNELS 3 Zrotation Xrotation Yrotation
                JOINT LeftShoulder
                {
                    OFFSET  10.383700   0.000000   0.000000
                    CHANNELS 3 Zrotation Xrotation Yrotation
                    JOINT LeftElbow
                    {
                        OFFSET  26.662100   0.001193   0.000980
                        CHANNELS 3 Zrotation Xrotation Yrotation
                        JOINT LeftWrist
                        {
                            OFFSET  28.869000  -0.000059  -0.000082
                            CHANNELS 3 Zrotation Xrotation Yrotation
                            JOINT LeftFinger0
                            {
                                OFFSET   2.044650  -2.323450   3.252850
                                CHANNELS 3 Zrotation Xrotation Yrotation
                                JOINT LeftFinger01
                                {
                                    OFFSET   3.088130   0.000000   0.000000
                                    CHANNELS 3 Zrotation Xrotation Yrotation
                                    JOINT LeftFinger02
                                    {
                                        OFFSET   2.639460   0.000000   0.000000
                                        CHANNELS 3 Zrotation Xrotation Yrotation
                                        End Site
                                        {
                                            OFFSET   2.582190   0.000000   0.000000
                                        }
                                    }
                                }
                            }
                            JOINT LeftFinger1
                            {
                                OFFSET   8.364480   0.000000   3.252850
                                CHANNELS 3 Zrotation Xrotation Yrotation
                                JOINT LeftFinger11
                                {
                                    OFFSET   4.646930   0.000000   0.000000
                                    CHANNELS 3 Zrotation Xrotation Yrotation
                                    JOINT LeftFinger12
                                    {
                                        OFFSET   2.323470   0.000000   0.000000
                                        CHANNELS 3 Zrotation Xrotation Yrotation
                                        End Site
                                        {
                                            OFFSET   2.273050   0.000000   0.000000
                                        }
                                    }
                                }
                            }
                            JOINT LeftFinger2
                            {
                                OFFSET   8.364490   0.000016   1.078090
                                CHANNELS 3 Zrotation Xrotation Yrotation
                                JOINT LeftFinger21
                                {
                                    OFFSET   5.111610   0.000000   0.000000
                                    CHANNELS 3 Zrotation Xrotation Yrotation
                                    JOINT LeftFinger22
                                    {
                                        OFFSET   2.788150   0.000016   0.000000
                                        CHANNELS 3 Zrotation Xrotation Yrotation
                                        End Site
                                        {
                                            OFFSET   2.727660   0.000000   0.000000
                                        }
                                    }
                                }
                            }
                            JOINT LeftFinger3
                            {
                                OFFSET   7.899780   0.000015  -1.078090
                                CHANNELS 3 Zrotation Xrotation Yrotation
                                JOINT LeftFinger31
                                {
                                    OFFSET   4.646930   0.000000   0.000000
                                    CHANNELS 3 Zrotation Xrotation Yrotation
                                    JOINT LeftFinger32
                                    {
                                        OFFSET   2.323470   0.000000   0.000000
                                        CHANNELS 3 Zrotation Xrotation Yrotation
                                        End Site
                                        {
                                            OFFSET   2.273050   0.000000   0.000000
                                        }
                                    }
                                }
                            }
                            JOINT LeftFinger4
                            {
                                OFFSET   7.435090   0.000000  -3.252850
                                CHANNELS 3 Zrotation Xrotation Yrotation
                                JOINT LeftFinger41
                                {
                                    OFFSET   3.717550   0.000000   0.000000
                                    CHANNELS 3 Zrotation Xrotation Yrotation
                                    JOINT LeftFinger42
                                    {
                                        OFFSET   1.858770   0.000000   0.000000
                                        CHANNELS 3 Zrotation Xrotation Yrotation
                                        End Site
                                        {
                                            OFFSET   1.818440   0.000000   0.000000
                                        }
                                    }
                                }
                            }
                        }
                    }
                }
            }
            JOINT RightCollar
            {
                OFFSET  -3.911910  19.017000  -0.467062
                CHANNELS 3 Zrotation Xrotation Yrotation
                JOINT RightShoulder
                {
                    OFFSET -10.383700   0.000014   0.000000
                    CHANNELS 3 Zrotation Xrotation Yrotation
                    JOINT RightElbow
                    {
                        OFFSET -26.662100   0.001225   0.001091
                        CHANNELS 3 Zrotation Xrotation Yrotation
                        JOINT RightWrist
                        {
                            OFFSET -28.869000  -0.000020  -0.000085
                            CHANNELS 3 Zrotation Xrotation Yrotation
                            JOINT RightFinger0
                            {
                                OFFSET  -2.044650  -2.323490   3.252850
                                CHANNELS 3 Zrotation Xrotation Yrotation
                                JOINT RightFinger01
                                {
                                    OFFSET  -3.088130   0.000000   0.000000
                                    CHANNELS 3 Zrotation Xrotation Yrotation
                                    JOINT RightFinger02
                                    {
                                        OFFSET  -2.639460   0.000000   0.000000
                                        CHANNELS 3 Zrotation Xrotation Yrotation
                                        End Site
                                        {
                                            OFFSET  -2.582190   0.000000   0.000000
                                        }
                                    }
                                }
                            }
                            JOINT RightFinger1
                            {
                                OFFSET  -8.364480   0.000000   3.252850
                                CHANNELS 3 Zrotation Xrotation Yrotation
                                JOINT RightFinger11
                                {
                                    OFFSET  -4.646930   0.000000   0.000000
                                    CHANNELS 3 Zrotation Xrotation Yrotation
                                    JOINT RightFinger12
                                    {
                                        OFFSET  -2.323470   0.000000   0.000000
                                        CHANNELS 3 Zrotation Xrotation Yrotation
                                        End Site
                                        {
                                            OFFSET  -2.273050   0.000000   0.000000
                                        }
                                    }
                                }
                            }
                            JOINT RightFinger2
                            {
                                OFFSET  -8.364480   0.000000   1.078090
                                CHANNELS 3 Zrotation Xrotation Yrotation
                                JOINT RightFinger21
                                {
                                    OFFSET  -5.111620   0.000000   0.000000
                                    CHANNELS 3 Zrotation Xrotation Yrotation
                                    JOINT RightFinger22
                                    {
                                        OFFSET  -2.788160   0.000000   0.000000
                                        CHANNELS 3 Zrotation Xrotation Yrotation
                                        End Site
                                        {
                                            OFFSET  -2.727660   0.000000   0.000000
                                        }
                                    }
                                }
                            }
                            JOINT RightFinger3
                            {
                                OFFSET  -7.899780   0.000000  -1.078090
                                CHANNELS 3 Zrotation Xrotation Yrotation
                                JOINT RightFinger31
                                {
                                    OFFSET  -4.646930   0.000000   0.000000
                                    CHANNELS 3 Zrotation Xrotation Yrotation
                                    JOINT RightFinger32
                                    {
                                        OFFSET  -2.323470   0.000000   0.000000
                                        CHANNELS 3 Zrotation Xrotation Yrotation
                                        End Site
                                        {
                                            OFFSET  -2.273050   0.000000   0.000000
                                        }
                                    }
                                }
                            }
                            JOINT RightFinger4
                            {
                                OFFSET  -7.435090   0.000000  -3.252850
                                CHANNELS 3 Zrotation Xrotation Yrotation
                                JOINT RightFinger41
                                {
                                    OFFSET  -3.717550   0.000000   0.000000
                                    CHANNELS 3 Zrotation Xrotation Yrotation
                                    JOINT RightFinger42
                                    {
                                        OFFSET  -1.858760   0.000000   0.000000
                                        CHANNELS 3 Zrotation Xrotation Yrotation
                                        End Site
                                        {
                                            OFFSET  -1.818440   0.000000   0.000000
                                        }
                                    }
                                }
                            }
                        }
                    }
                }
            }
        }
    }
    JOINT LeftHip
    {
        OFFSET   9.783030   0.000000   0.000000
        CHANNELS 3 Zrotation Xrotation Yrotation
        JOINT LeftKnee
        {
            OFFSET   0.000063 -41.789100   0.000608
            CHANNELS 3 Zrotation Xrotation Yrotation
            JOINT LeftAnkle
            {
                OFFSET   0.000048 -41.133200  -0.000184
                CHANNELS 3 Zrotation Xrotation Yrotation
                JOINT LeftToe
                {
                    OFFSET   0.000000  -6.358960  14.674500
                    CHANNELS 3 Zrotation Xrotation Yrotation
                    End Site
                    {
                        OFFSET   0.000000   0.000000   3.913200
                    }
                }
            }
        }
    }
    JOINT RightHip
    {
        OFFSET  -9.783030   0.000000   0.000000
        CHANNELS 3 Zrotation Xrotation Yrotation
        JOINT RightKnee
        {
            OFFSET   0.000071 -41.789100   0.001239
            CHANNELS 3 Zrotation Xrotation Yrotation
            JOINT RightAnkle
            {
                OFFSET   0.000037 -41.133200  -0.000166
                CHANNELS 3 Zrotation Xrotation Yrotation
                JOINT RightToe
                {
                    OFFSET   0.000000  -6.358960  14.674500
                    CHANNELS 3 Zrotation Xrotation Yrotation
                    End Site
                    {
                        OFFSET   0.000000   0.000000   3.913200
                    }
                }
            }
        }
    }
}
MOTION
Frames: 6
Frame Time:   0.016667
 -0.572492  89.533700   3.615940  -4.843380 -12.933400  -6.708830   1.623100   6.645010   0.042601   3.274620  13.288600  -0.106911   1.504540   2.422680  -0.062259   2.483730   4.902170   7.788620  -6.716040   1.159060  -3.451490 -40.694700  25.569800 -63.533000  32.436000   7.588590 -54.908100   6.056400  17.135500  12.480000  37.994300  29.323300 -38.198400 -31.437500  -0.060481  -0.036897 -10.712100  -0.026247  -0.024624 -11.287300   0.197726  -1.288290  -9.230150  -0.038165  -0.018990  -6.461120  -0.025150  -0.015898 -13.884200   0.254465  -1.411430 -13.871600  -0.039873  -0.019753  -9.238460  -0.024270  -0.017017 -12.171200  -0.574152   2.044440 -12.161500  -0.054452  -0.023024  -8.099550  -0.034157  -0.018345 -19.197200  -1.419390   3.783320 -28.854500  -0.078966  -0.072013 -19.217100  -0.034482  -0.062389   7.717620   1.531330  13.213400  40.397900  21.167000  43.043900 -33.684300 -11.478500  74.779500  -6.850740  23.533300   6.713570 -44.536600  35.749500  48.013700  26.268000  -0.058743   0.029078   8.134020  -0.027376   0.019026  15.528700  -0.423340  -1.493970  12.693600   0.019197   0.003559   8.885500   0.013794   0.000762  16.391800  -0.853985  -2.883490  16.416900  -0.066487   0.018825  10.933600  -0.041296   0.020266  11.586800  -0.794770  -3.781760  11.606500  -0.122929   0.006312   7.729920  -0.080653   0.014163  20.891700  -1.965250  -5.033560  31.415900  -0.063786   0.046527  20.923000  -0.029786   0.043262   2.383930  17.317900   5.049830   1.323600   0.156788   6.836660  -1.302250  -4.789800   2.129080  -0.000000   0.000000   0.000000   3.909420  14.449500  -3.384960  -0.401426   3.496370  -8.776100  -1.464260  -4.986620   1.202170  -0.000000   0.000000   0.000000
 -0.535000  89.554000   3.640510  -4.839390 -13.167100  -6.517860   1.587100   6.616490  -0.079557   3.215950  13.226900  -0.348184   1.096090   2.240500  -0.042994   1.800150   4.540570   8.149870  -6.938420   1.059970  -3.995630 -43.003600  23.663700 -60.082200  28.785000   9.106140 -50.049900   5.538190  17.860200  14.814400  38.069500  28.448200 -35.898300 -30.187700  -0.052441  -0.031007 -10.086200  -0.022904  -0.020366 -10.603200   0.245255  -1.481730  -8.669130  -0.036232  -0.021532  -6.068390  -0.023682  -0.017319 -13.471900   0.271932  -1.437930 -13.461700  -0.024498  -0.017765  -8.965490  -0.013448  -0.013214 -11.670600  -0.657537   3.014780 -11.675700  -0.036889  -0.020923  -7.776020  -0.022725  -0.016219 -18.481600  -1.397130   3.836420 -27.777300  -0.049546  -0.058618 -18.499700  -0.018071  -0.047300   7.859180   1.386290  12.600200  42.668500  20.364700  40.199000 -33.737800 -10.075900  69.910900  -3.102600  26.128600   2.431050 -44.617900  33.430500  44.687800  24.302200  -0.058012   0.024147   7.151090  -0.027156   0.015768  15.507100  -0.357870  -1.262880  12.674900  -0.017882   0.014262   8.872410  -0.010903   0.011876  15.887000  -0.583431  -1.991060  15.894300  -0.056400   0.022559  10.585600  -0.034485   0.020169  10.662500  -0.586053  -3.090140  10.681300  -0.076161   0.004644   7.113740  -0.049672   0.011268  20.181600  -1.857330  -4.894330  30.359100  -0.079994   0.066029  20.219200  -0.035904   0.059244   2.415630  17.560000   5.074090   1.283190   0.162701   6.696600  -1.268450  -4.850250   2.050880  -0.000000   0.000000  -0.000000   3.953610  14.737200  -3.313040  -0.411146   3.500930  -8.903980  -1.454080  -5.096230   1.036390   0.000000   0.000000   0.000000
 -0.503715  89.564000   3.675590  -4.872840 -13.438100  -6.420230   1.577400   6.612390  -0.156473   3.205480  13.217900  -0.502637   0.666069   1.946100  -0.023663   1.096210   3.946050   8.404290  -6.988410   1.009040  -4.410020 -44.934000  21.776200 -57.276900  25.694800  10.085700 -45.144300   5.841550  18.530500  15.887200  38.524400  28.183300 -35.057300 -28.953900  -0.037476  -0.020638  -9.476970  -0.016590  -0.014748  -9.829520   0.358291  -2.219790  -8.031530  -0.031931  -0.022139  -5.622070  -0.020809  -0.017522 -13.260800   0.394186  -1.623460 -13.246300  -0.014412  -0.016157  -8.822050  -0.007867  -0.010640 -11.324300  -0.669310   3.324450 -11.336100  -0.021754  -0.017659  -7.549860  -0.012906  -0.013457 -17.827300  -1.246390   3.843780 -26.789600  -0.021185  -0.038075 -17.841900  -0.005950  -0.028358   7.940460   1.220440  11.891800  44.149000  19.785900  38.222800 -33.885800  -8.532340  63.332400   0.109316  27.152900  -0.027408 -45.390600  32.013400  43.152700  21.120700  -0.052895   0.015623   5.560340  -0.025620   0.010146  15.340700  -0.124219  -0.323044  12.544000  -0.041629   0.021044   8.780770  -0.026759   0.018905  14.874700  -0.095669  -0.243442  14.865000  -0.037959   0.023115   9.900110  -0.022417   0.019490   9.413730  -0.206141  -1.408320   9.408000  -0.016181   0.001900   6.265730  -0.010190   0.006603  18.786700  -1.470310  -4.010720  28.233900  -0.082310   0.072858  18.803800  -0.036778   0.063723   2.509100  17.860000   5.094980   1.200760   0.169775   6.573930  -1.239960  -4.930400   2.010970  -0.000000   0.000000  -0.000000   4.042990  15.046600  -3.226120  -0.454643   3.535090  -8.968270  -1.441600  -5.208220   0.847991  -0.000000   0.000000   0.000000
 -0.492115  89.563800   3.718780  -4.962340 -13.715400  -6.448410   1.584640   6.674640  -0.119136   3.216470  13.343300  -0.429980   0.311106   1.537820  -0.009471   0.514061   3.119390   8.391460  -6.963340   1.054630  -4.936240 -46.564000  19.948100 -55.068500  22.438800   9.679660 -40.619200   6.846800  19.166700  15.878400  39.401200  28.262100 -35.149100 -27.588800  -0.018582  -0.008835  -8.794860  -0.008053  -0.006425  -8.629290   0.541857  -3.821830  -7.061190  -0.017333  -0.014292  -4.942820  -0.011289  -0.011129 -12.556100   0.732807  -3.162020 -12.554800  -0.008857  -0.011299  -8.361500  -0.007286  -0.007337 -10.603500  -0.460086   2.328480 -10.604300  -0.013530  -0.012301  -7.062510  -0.007535  -0.009286 -17.029400  -0.849867   2.872830 -25.559700  -0.011689  -0.024947 -17.022700  -0.005529  -0.018156   7.988700   1.022900  10.934800  45.049800  18.856600  36.512900 -33.292600  -7.566850  58.319700  -0.409457  26.162000   0.015315 -46.648400  32.162800  44.224500  18.432500  -0.026433   0.006333   4.216240  -0.012751   0.003945  13.804400   0.384221   1.867620  11.289100  -0.023296   0.015499   7.902370  -0.015360   0.013184  13.370300   0.406036   1.895650  13.360800  -0.016713   0.016408   8.898310  -0.010050   0.012959   8.317110   0.197777   1.392620   8.305470  -0.002147  -0.000397   5.531450  -0.000272   0.002941  16.690200  -0.599004  -1.597860  25.017500  -0.037914   0.045316  16.661700  -0.015703   0.038258   2.656140  18.197700   5.093380   1.085130   0.183075   6.517340  -1.229340  -5.025970   2.022030  -0.000000   0.000000   0.000000   4.182920  15.355300  -3.213070  -0.542910   3.615600  -8.898180  -1.420620  -5.304600   0.687848  -0.000000   0.000000   0.000000
 -0.490458  89.562600   3.757060  -5.065270 -13.944800  -6.514220   1.592250   6.777120  -0.039102   3.223410  13.550500  -0.272268   0.032384   1.086050  -0.001255   0.052127   2.202480   8.348140  -6.941710   1.100460  -5.239030 -47.955700  18.326600 -53.185500  19.678100   8.430950 -36.916000   7.959510  19.812400  15.578800  39.986900  28.358100 -35.606100 -26.376800  -0.005082  -0.001063  -8.188410  -0.002474  -0.000830  -7.392510   0.719556  -5.645480  -6.071060  -0.006457  -0.004314  -4.249730  -0.004327  -0.003254 -11.715700   1.103150  -5.374330 -11.756700  -0.006988  -0.006472  -7.829940  -0.007102  -0.004860  -9.778690  -0.130404   0.659277  -9.771540  -0.009045  -0.006924  -6.507860  -0.005483  -0.005216 -16.191600  -0.391704   1.290290 -24.282000  -0.010163  -0.014839 -16.171800  -0.005397  -0.011296   8.002870   0.781126  10.011100  45.570700  17.791200  34.900300 -32.462500  -7.071400  54.223600  -1.699470  24.723300   0.309008 -48.291500  32.178700  46.134400  16.542900  -0.002319   0.000338   3.271440  -0.001199   0.000110  12.374100   0.919738   4.176470  10.146500  -0.000376   0.006918   7.102530   0.000296   0.004754  12.336400   0.877461   3.959770  12.363300   0.000349   0.006139   8.233960   0.000755   0.003943   7.674180   0.570840   4.140760   7.692220   0.001434  -0.002303   5.123020   0.001145  -0.000000  15.246400   0.278935   0.917466  22.869500   0.006850   0.007762  15.231100   0.005371   0.003496   2.802310  18.490900   5.079660   0.985087   0.197663   6.502520  -1.220000  -5.116020   2.062310  -0.000000   0.000000  -0.000000   4.313890  15.529100  -3.213220  -0.644707   3.729120  -8.726820  -1.395920  -5.387450   0.556616  -0.000000   0.000000   0.000000
 -0.496224  89.560400   3.773620  -5.172170 -14.042400  -6.632510   1.590980   6.875650   0.058333   3.214310  13.747500  -0.078136  -0.122483   0.657177   0.000608  -0.198769   1.333180   8.226520  -6.996740   1.062390  -5.223980 -49.196400  16.893800 -51.276500  18.096800   7.834320 -34.689900   8.763200  20.655800  14.791000  40.530700  28.400800 -36.762500 -25.611900  -0.003298  -0.000604  -7.805950  -0.002459  -0.000580  -6.450220   0.809677  -7.138970  -5.316670  -0.006213  -0.002065  -3.721650  -0.004277  -0.001682 -10.892300   1.337730  -6.993160 -10.969900  -0.006566  -0.004262  -7.305920  -0.006763  -0.004161  -8.912160   0.104350  -0.783489  -8.908100  -0.006944  -0.003562  -5.932800  -0.005216  -0.002715 -15.322500  -0.022295   0.019864 -22.977100  -0.009868  -0.008735 -15.302800  -0.005163  -0.006785   7.956370   0.476720   9.394920  46.588100  16.434900  32.939700 -31.088200  -6.268940  51.854300  -4.485860  23.914300   1.832620 -48.500000  31.712400  48.094800  16.223200   0.000058  -0.000009   3.111610  -0.001375   0.000177  12.435300   1.225000   5.408640  10.225600   0.004975   0.000528   7.157940   0.005926  -0.000248  12.508900   1.175260   5.128620  12.566900   0.005214  -0.001400   8.369590   0.005795  -0.001874   7.911940   0.777988   5.347830   7.952840   0.005040  -0.003181   5.296600   0.001144  -0.001250  15.402400   0.628098   2.060560  23.125300   0.007281  -0.004750  15.401400   0.003307  -0.008221   2.884390  18.634700   5.056300   0.953004   0.212517   6.521630  -1.204720  -5.181830   2.147570   0.000000   0.000000   0.000000   4.414600  15.524300  -3.321890  -0.746934   3.879320  -8.442650  -1.368720  -5.453680   0.469296   0.000000   0.000000   0.000000
